<svg version="1.0" xmlns="http://www.w3.org/2000/svg"
 width="45pt" height="45" viewBox="0 0 344.000000 312.000000">

<g transform="translate(0.000000,312.000000) scale(0.100000,-0.100000)"
fill="#current" stroke="none">
<path d="M770 2329 c-107 -121 -203 -232 -213 -244 l-17 -23 92 -68 c51 -37
252 -184 446 -327 l352 -259 0 -241 0 -242 372 -279 c204 -153 367 -272 362
-265 -4 8 -125 176 -269 374 -144 198 -265 365 -268 371 -4 7 45 70 114 149
67 75 117 141 113 145 -5 5 -205 151 -444 324 l-435 316 -5 246 -5 245 -195
-222z"/>
<path d="M1282 2311 c-178 -202 -212 -246 -200 -256 7 -8 207 -156 443 -329
l430 -316 5 -240 5 -241 195 223 c107 122 203 231 212 243 16 21 10 26 -428
344 l-444 323 -2 246 -3 246 -213 -243z"/>
<path d="M1812 2309 c-128 -146 -209 -246 -204 -251 6 -6 205 -153 443 -329
l434 -318 220 -1 c129 0 215 4 210 9 -6 5 -206 151 -445 325 l-435 316 -5 246
-5 246 -213 -243z"/>
<path d="M2340 2313 c-113 -129 -207 -239 -208 -244 -2 -6 85 -8 210 -7 l213
3 3 243 c1 133 -1 242 -5 241 -5 0 -100 -107 -213 -236z"/>
</g>
</svg>
